# xmcd
#
# Track frame offsets:
#	150
#	16793
#	22459
#	38860
#	44306
#	67192
#	73245
#	92455
#	111157
#	127800
#	133113
#	149514
#
# Disc length: 2297 seconds
#
# Revision: 1
# Processed by: cddbd v1.5.2PL0 Copyright (c) Steve Scherf et al.
# Submitted via: audiograbber 1.83.01
#
DISCID=b108f70c
DTITLE=Fake Idyll - Therapist
DYEAR=2011
DGENRE=Grindcore
TTITLE0=Therapist [GestalllTheGrils]
TTITLE1=DeadCowPizza
TTITLE2=Schlangenmilch
TTITLE3=Urschmerz
TTITLE4=Superreligiös
TTITLE5=American Daze German Nights
TTITLE6=Bekifft In Deutschland
TTITLE7=Moho
TTITLE8=Therapist [Karaoke Version]
TTITLE9=DeadCowPizza [Karaoke Version]
TTITLE10=Schlangenmilch [Karaoke Version]
TTITLE11=Superreligiös [Karaoke Version]
EXTD=
EXTT0=
EXTT1=
EXTT2=
EXTT3=
EXTT4=
EXTT5=
EXTT6=
EXTT7=
EXTT8=
EXTT9=
EXTT10=
EXTT11=
PLAYORDER=
